<?xml version="1.0" encoding="utf-8"?>
<!-- Generator: Adobe Illustrator 16.0.0, SVG Export Plug-In . SVG Version: 6.00 Build 0)  -->
<!DOCTYPE svg PUBLIC "-//W3C//DTD SVG 1.1//EN" "http://www.w3.org/Graphics/SVG/1.1/DTD/svg11.dtd">
<svg version="1.1" id="Capa_1" xmlns="http://www.w3.org/2000/svg" xmlns:xlink="http://www.w3.org/1999/xlink" x="0px" y="0px"
	 width="398px" height="590px" viewBox="0 0 398 590" enable-background="new 0 0 398 590" xml:space="preserve">
<path fill="none" stroke="#A2BF4C" stroke-width="7" stroke-linecap="round" stroke-linejoin="round" stroke-miterlimit="10" d="
	M169.813,42.101c0-14.705,0-23.096,0-23.096"/>
<path fill="none" stroke="#A2BF4C" stroke-width="7" stroke-linecap="round" stroke-linejoin="round" stroke-miterlimit="10" d="
	M169.813,566.616c0,0,0-306.881,0-461.182"/>
<polygon fill="none" stroke="#A2BF4C" stroke-width="7" stroke-linecap="round" stroke-linejoin="round" stroke-miterlimit="10" points="
	147.431,60.796 169.708,40.796 192.149,60.796 192.149,103.277 147.431,103.277 "/>
<path fill="#FFFFFF" stroke="#A2BF4C" stroke-width="6" stroke-linecap="round" stroke-linejoin="round" stroke-miterlimit="10" d="
	M176.909,565.435c0,3.98-3.225,7.203-7.201,7.203c-3.98,0-7.202-3.225-7.202-7.203c0-3.977,3.222-7.195,7.202-7.195
	C173.685,558.237,176.909,561.46,176.909,565.435z"/>
<circle fill="#FFFFFF" stroke="#A2BF4C" stroke-width="5" stroke-linecap="round" stroke-linejoin="round" stroke-miterlimit="10" cx="169.813" cy="544.68" r="5.853"/>
<circle fill="#FFFFFF" stroke="#A2BF4C" stroke-width="5" stroke-linecap="round" stroke-linejoin="round" stroke-miterlimit="10" cx="169.707" cy="523.593" r="5.852"/>
<circle fill="#FFFFFF" stroke="#A2BF4C" stroke-width="5" stroke-linecap="round" stroke-linejoin="round" stroke-miterlimit="10" cx="169.707" cy="502.594" r="5.853"/>
<circle fill="#FFFFFF" stroke="#A2BF4C" stroke-width="5" stroke-linecap="round" stroke-linejoin="round" stroke-miterlimit="10" cx="169.707" cy="481.51" r="5.853"/>
<circle fill="#FFFFFF" stroke="#A2BF4C" stroke-width="5" stroke-linecap="round" stroke-linejoin="round" stroke-miterlimit="10" cx="169.707" cy="460.332" r="5.853"/>
<circle fill="#FFFFFF" stroke="#A2BF4C" stroke-width="5" stroke-linecap="round" stroke-linejoin="round" stroke-miterlimit="10" cx="169.707" cy="439.369" r="5.853"/>
<circle fill="#FFFFFF" stroke="#A2BF4C" stroke-width="5" stroke-linecap="round" stroke-linejoin="round" stroke-miterlimit="10" cx="169.707" cy="418.324" r="5.853"/>
<circle fill="#FFFFFF" stroke="#A2BF4C" stroke-width="5" stroke-linecap="round" stroke-linejoin="round" stroke-miterlimit="10" cx="169.707" cy="397.316" r="5.853"/>
<circle fill="#FFFFFF" stroke="#A2BF4C" stroke-width="5" stroke-linecap="round" stroke-linejoin="round" stroke-miterlimit="10" cx="169.707" cy="376.42" r="5.854"/>
<circle fill="#FFFFFF" stroke="#A2BF4C" stroke-width="5" stroke-linecap="round" stroke-linejoin="round" stroke-miterlimit="10" cx="169.707" cy="355.525" r="5.853"/>
<circle fill="#FFFFFF" stroke="#A2BF4C" stroke-width="5" stroke-linecap="round" stroke-linejoin="round" stroke-miterlimit="10" cx="169.707" cy="334.498" r="5.854"/>
<circle fill="#FFFFFF" stroke="#A2BF4C" stroke-width="5" stroke-linecap="round" stroke-linejoin="round" stroke-miterlimit="10" cx="169.707" cy="313.104" r="5.853"/>
<circle fill="#FFFFFF" stroke="#A2BF4C" stroke-width="5" stroke-linecap="round" stroke-linejoin="round" stroke-miterlimit="10" cx="169.707" cy="292.539" r="5.853"/>
<circle fill="#FFFFFF" stroke="#A2BF4C" stroke-width="5" stroke-linecap="round" stroke-linejoin="round" stroke-miterlimit="10" cx="169.707" cy="271.577" r="5.852"/>
<circle fill="#FFFFFF" stroke="#A2BF4C" stroke-width="5" stroke-linecap="round" stroke-linejoin="round" stroke-miterlimit="10" cx="169.707" cy="250.56" r="5.852"/>
<circle fill="#FFFFFF" stroke="#A2BF4C" stroke-width="5" stroke-linecap="round" stroke-linejoin="round" stroke-miterlimit="10" cx="169.707" cy="229.68" r="5.852"/>
<circle fill="#FFFFFF" stroke="#A2BF4C" stroke-width="5" stroke-linecap="round" stroke-linejoin="round" stroke-miterlimit="10" cx="169.707" cy="208.575" r="5.852"/>
<circle fill="#FFFFFF" stroke="#A2BF4C" stroke-width="5" stroke-linecap="round" stroke-linejoin="round" stroke-miterlimit="10" cx="169.707" cy="187.507" r="5.852"/>
<circle fill="#FFFFFF" stroke="#A2BF4C" stroke-width="5" stroke-linecap="round" stroke-linejoin="round" stroke-miterlimit="10" cx="169.707" cy="166.48" r="5.852"/>
<path fill="#FFFFFF" stroke="#A2BF4C" stroke-width="5" stroke-linecap="round" stroke-linejoin="round" stroke-miterlimit="10" d="
	M175.56,145.527c0,3.231-2.619,5.852-5.852,5.852s-5.854-2.619-5.854-5.852s2.619-5.854,5.854-5.854
	C172.938,139.675,175.56,142.294,175.56,145.527z"/>
<circle fill="#FFFFFF" stroke="#A2BF4C" stroke-width="5" stroke-linecap="round" stroke-linejoin="round" stroke-miterlimit="10" cx="169.707" cy="124.654" r="5.852"/>
<path fill="#FFFFFF" stroke="#A2BF4C" stroke-width="5" stroke-linecap="round" stroke-linejoin="round" stroke-miterlimit="10" d="
	M153.282,82.34c0,3.231-2.62,5.851-5.852,5.851c-3.233,0-5.854-2.618-5.854-5.851c0-3.234,2.619-5.854,5.854-5.854
	C150.662,76.486,153.282,79.105,153.282,82.34z"/>
<circle fill="#FFFFFF" stroke="#A2BF4C" stroke-width="5" stroke-linecap="round" stroke-linejoin="round" stroke-miterlimit="10" cx="169.815" cy="40.375" r="5.852"/>
<circle fill="#FFFFFF" stroke="#A2BF4C" stroke-width="5" stroke-linecap="round" stroke-linejoin="round" stroke-miterlimit="10" cx="169.815" cy="19.388" r="5.852"/>
<path fill="#FFFFFF" stroke="#A2BF4C" stroke-width="5" stroke-linecap="round" stroke-linejoin="round" stroke-miterlimit="10" d="
	M153.282,61.334c0,3.23-2.62,5.851-5.852,5.851c-3.233,0-5.854-2.619-5.854-5.851c0-3.234,2.619-5.854,5.854-5.854
	C150.662,55.479,153.282,58.099,153.282,61.334z"/>
<path fill="#FFFFFF" stroke="#A2BF4C" stroke-width="5" stroke-linecap="round" stroke-linejoin="round" stroke-miterlimit="10" d="
	M153.282,103.277c0,3.231-2.62,5.852-5.852,5.852c-3.233,0-5.854-2.619-5.854-5.852s2.619-5.854,5.854-5.854
	C150.662,97.424,153.282,100.044,153.282,103.277z"/>
<path fill="#FFFFFF" stroke="#A2BF4C" stroke-width="5" stroke-linecap="round" stroke-linejoin="round" stroke-miterlimit="10" d="
	M198.001,82.34c0,3.231-2.619,5.851-5.852,5.851s-5.853-2.618-5.853-5.851c0-3.234,2.619-5.854,5.853-5.854
	C195.382,76.486,198.001,79.105,198.001,82.34z"/>
<path fill="#FFFFFF" stroke="#A2BF4C" stroke-width="5" stroke-linecap="round" stroke-linejoin="round" stroke-miterlimit="10" d="
	M198.001,61.334c0,3.23-2.619,5.851-5.852,5.851s-5.853-2.619-5.853-5.851c0-3.234,2.619-5.854,5.853-5.854
	C195.382,55.479,198.001,58.099,198.001,61.334z"/>
<path fill="#FFFFFF" stroke="#A2BF4C" stroke-width="5" stroke-linecap="round" stroke-linejoin="round" stroke-miterlimit="10" d="
	M198.001,103.277c0,3.231-2.619,5.852-5.852,5.852s-5.853-2.619-5.853-5.852s2.619-5.854,5.853-5.854
	C195.382,97.424,198.001,100.044,198.001,103.277z"/>
<polygon fill="#F5F5F6" points="190.204,95.835 192.148,89.523 194.095,95.835 "/>
<polygon fill="#F5F5F6" points="190.204,74.752 192.148,68.44 194.095,74.752 "/>
<polygon fill="#F5F5F6" points="149.372,68.44 147.433,74.752 145.486,68.44 "/>
<polygon fill="#F5F5F6" points="149.372,89.523 147.433,95.835 145.486,89.523 "/>
<polygon fill="#F5F5F6" points="158.36,101.332 164.674,103.277 158.36,105.222 "/>
<polygon fill="#F5F5F6" points="174.795,101.332 181.105,103.277 174.795,105.222 "/>
<polygon fill="#F5F5F6" points="161.354,50.891 155.514,53.979 158.604,48.141 "/>
<polygon fill="#F5F5F6" points="181.197,53.979 178.107,48.141 183.945,51.229 "/>
<text transform="matrix(1 0 0 1 152.8325 105.6357)"><tspan x="0" y="0" fill="#FFFFFF" font-family="'ArialMT'" font-size="12"> </tspan><tspan x="-38.695" y="21" fill="#FFFFFF" font-family="'ArialMT'" font-size="12">Prepa 1</tspan><tspan x="-56.039" y="42" fill="#FFFFFF" font-family="'ArialMT'" font-size="12">Santa Julia</tspan><tspan x="-81.387" y="63" fill="#FFFFFF" font-family="'ArialMT'" font-size="12">Cuna del Futbol</tspan><tspan x="-112.072" y="84" fill="#FFFFFF" font-family="'ArialMT'" font-size="12">Central de Autobuses</tspan><tspan x="-94.037" y="105" fill="#FFFFFF" font-family="'ArialMT'" font-size="12">Tec. de Monterrey</tspan><tspan x="-74.725" y="126" fill="#FFFFFF" font-family="'ArialMT'" font-size="12">Zona Plateada</tspan><tspan x="-72.697" y="147" fill="#FFFFFF" font-family="'ArialMT'" font-size="12">Centro Minero</tspan><tspan x="-63.375" y="168" fill="#FFFFFF" font-family="'ArialMT'" font-size="12">Bicentenario</tspan><tspan x="-61.371" y="189" fill="#FFFFFF" font-family="'ArialMT'" font-size="12">Tecnológico</tspan><tspan x="-29.344" y="210" fill="#FFFFFF" font-family="'ArialMT'" font-size="12">SEPH</tspan><tspan x="-52.693" y="231" fill="#FFFFFF" font-family="'ArialMT'" font-size="12">Hospitales</tspan><tspan x="-70.031" y="252" fill="#FFFFFF" font-family="'ArialMT'" font-size="12">Juan C. Doria</tspan><tspan x="-78.721" y="273" fill="#FFFFFF" font-family="'ArialMT'" font-size="12">Vicente Segura</tspan><tspan x="-92.713" y="294" fill="#FFFFFF" font-family="'ArialMT'" font-size="12">Centro de Justicia</tspan><tspan x="-76.049" y="315" fill="#FFFFFF" font-family="'ArialMT'" font-size="12">Felipe Ángeles</tspan><tspan x="-91.371" y="336" fill="#FFFFFF" font-family="'ArialMT'" font-size="12">Ejercito Mexicano</tspan><tspan x="-62.051" y="357" fill="#FFFFFF" font-family="'ArialMT'" font-size="12">San Antonio</tspan><tspan x="-69.369" y="378" fill="#FFFFFF" font-family="'ArialMT'" font-size="12">Tercera Edad</tspan><tspan x="-82.723" y="399" fill="#FFFFFF" font-family="'ArialMT'" font-size="12">Efrén Rebolledo</tspan><tspan x="-35.35" y="420" fill="#FFFFFF" font-family="'ArialMT'" font-size="12">Matilde</tspan><tspan x="-85.371" y="441" fill="#FFFFFF" font-family="'ArialMT'" font-size="12">Gabriel Mancera</tspan><tspan x="-109.371" y="462" fill="#FFFFFF" font-family="'ArialMT'" font-size="12">Terminal/Patio Tellez</tspan></text>
<g>
	<text transform="matrix(1 0 0 1 70.1392 23.5176)"><tspan x="0" y="0" fill="#FFFFFF" font-family="'ArialMT'" font-size="12">Centro Histórico</tspan><tspan x="13.33" y="21" fill="#FFFFFF" font-family="'ArialMT'" font-size="12">Niños Heroes</tspan><tspan x="-6.68" y="42" fill="#FFFFFF" font-family="'ArialMT'" font-size="12">Plaza Juarez       </tspan><tspan x="-42.035" y="63" fill="#FFFFFF" font-family="'ArialMT'" font-size="12">Parque del Maestro       </tspan><tspan x="7.98" y="84" fill="#FFFFFF" font-family="'ArialMT'" font-size="12">Bioparque       </tspan><tspan x="62.689" y="126" fill="#FFFFFF" font-family="'ArialMT'" font-size="12">       </tspan></text>
</g>
<g>
	<text transform="matrix(1 0 0 1 205.166 63.7876)"><tspan x="0" y="0" fill="#FFFFFF" font-family="'ArialMT'" font-size="12">Presidente Alemán     </tspan><tspan x="0" y="21" fill="#FFFFFF" font-family="'ArialMT'" font-size="12">Manuel Dublán       </tspan><tspan x="0" y="42" fill="#FFFFFF" font-family="'ArialMT'" font-size="12">Revolución </tspan></text>
</g>
</svg>
