<?xml version="1.0" encoding="utf-8"?>
<!-- Generator: Adobe Illustrator 16.0.0, SVG Export Plug-In . SVG Version: 6.00 Build 0)  -->
<!DOCTYPE svg PUBLIC "-//W3C//DTD SVG 1.1//EN" "http://www.w3.org/Graphics/SVG/1.1/DTD/svg11.dtd">
<svg version="1.1" id="Capa_1" xmlns="http://www.w3.org/2000/svg" xmlns:xlink="http://www.w3.org/1999/xlink" x="0px" y="0px"
	 width="398px" height="590px" viewBox="0 0 398 590" enable-background="new 0 0 398 590" xml:space="preserve">
<path fill="none" stroke="#58585A" stroke-width="7" stroke-linecap="round" stroke-linejoin="round" stroke-miterlimit="10" d="
	M173.664,64c0-25.214,0-40.333,0-40.333"/>
<path fill="none" stroke="#58585A" stroke-width="7" stroke-linecap="round" stroke-linejoin="round" stroke-miterlimit="10" d="
	M173.664,571.273c0,0,0-304.369,0-459.273"/>
<line fill="none" stroke="#67216C" stroke-width="7" stroke-linecap="round" stroke-linejoin="round" stroke-miterlimit="10" x1="173.664" y1="421.273" x2="173.664" y2="109.667"/>
<polygon fill="none" stroke="#67216C" stroke-width="7" stroke-linecap="round" stroke-linejoin="round" stroke-miterlimit="10" points="
	151.281,65.457 173.559,65.457 196,65.457 196,107.938 151.279,107.938 "/>
<path fill="#FFFFFF" stroke="#585759" stroke-width="6" stroke-linecap="round" stroke-linejoin="round" stroke-miterlimit="10" d="
	M180.76,570.094c0,3.98-3.225,7.203-7.201,7.203c-3.98,0-7.203-3.223-7.203-7.203c0-3.977,3.223-7.199,7.203-7.199
	C177.535,562.895,180.76,566.117,180.76,570.094z"/>
<circle fill="#FFFFFF" stroke="#67216C" stroke-width="5" stroke-linecap="round" stroke-linejoin="round" stroke-miterlimit="10" cx="173.558" cy="422.984" r="5.853"/>
<circle fill="#FFFFFF" stroke="#67216C" stroke-width="5" stroke-linecap="round" stroke-linejoin="round" stroke-miterlimit="10" cx="173.558" cy="381.08" r="5.853"/>
<circle fill="#FFFFFF" stroke="#67216C" stroke-width="5" stroke-linecap="round" stroke-linejoin="round" stroke-miterlimit="10" cx="173.558" cy="276.238" r="5.853"/>
<circle fill="#FFFFFF" stroke="#67216C" stroke-width="5" stroke-linecap="round" stroke-linejoin="round" stroke-miterlimit="10" cx="173.558" cy="213.236" r="5.853"/>
<circle fill="#FFFFFF" stroke="#67216C" stroke-width="5" stroke-linecap="round" stroke-linejoin="round" stroke-miterlimit="10" cx="173.558" cy="192.167" r="5.853"/>
<text transform="matrix(1 0 0 1 156.9897 112.4102)" fill="#FFFFFF" font-family="'ArialMT'" font-size="12"> </text>
<text transform="matrix(1 0 0 1 118.2949 133.4102)" fill="#FFFFFF" font-family="'ArialMT'" font-size="12">Prepa 1</text>
<text transform="matrix(1 0 0 1 74.9585 154.4102)" fill="#FFFFFF" font-family="'ArialMT'" font-size="12">Sec. Gral. No. 2</text>
<text transform="matrix(1 0 0 1 109.6396 175.4102)" fill="#FFFFFF" font-family="'ArialMT'" font-size="12">Poliforum</text>
<text transform="matrix(1 0 0 1 116.3198 196.4102)" fill="#FFFFFF" font-family="'ArialMT'" font-size="12">CECATI</text>
<text transform="matrix(1 0 0 1 62.9526 217.4102)" fill="#FFFFFF" font-family="'ArialMT'" font-size="12">Tec. de Monterrey</text>
<text transform="matrix(1 0 0 1 60.2627 280.4102)" fill="#FFFFFF" font-family="'ArialMT'" font-size="12">Plaza Bicentenario</text>
<text transform="matrix(1 0 0 1 79.6167 385.4102)" fill="#FFFFFF" font-family="'ArialMT'" font-size="12">Plaza de Toros</text>
<text transform="matrix(1 0 0 1 64.9326 427.4102)" fill="#FFFFFF" font-family="'ArialMT'" font-size="12">Villas de Pachuca</text>
<circle fill="#FFFFFF" stroke="#67216C" stroke-width="5" stroke-linecap="round" stroke-linejoin="round" stroke-miterlimit="10" cx="173.558" cy="171.14" r="5.853"/>
<circle fill="#FFFFFF" stroke="#67216C" stroke-width="5" stroke-linecap="round" stroke-linejoin="round" stroke-miterlimit="10" cx="173.558" cy="150.189" r="5.853"/>
<path fill="#FFFFFF" stroke="#67216C" stroke-width="5" stroke-linecap="round" stroke-linejoin="round" stroke-miterlimit="10" d="
	M179.41,129.315c0,3.231-2.621,5.85-5.852,5.85c-3.234,0-5.854-2.619-5.854-5.85c0-3.234,2.619-5.853,5.854-5.853
	C176.789,123.462,179.41,126.082,179.41,129.315z"/>
<path fill="#FFFFFF" stroke="#67216C" stroke-width="5" stroke-linecap="round" stroke-linejoin="round" stroke-miterlimit="10" d="
	M157.133,87.001c0,3.231-2.621,5.851-5.852,5.851c-3.234,0-5.854-2.619-5.854-5.851c0-3.234,2.619-5.854,5.854-5.854
	C154.512,81.148,157.133,83.767,157.133,87.001z"/>
<g>
	<text transform="matrix(1 0 0 1 67.6167 70.293)" fill="#FFFFFF" font-family="'ArialMT'" font-size="12">Plaza Juarez       </text>
	<text transform="matrix(1 0 0 1 32.2617 91.293)" fill="#FFFFFF" font-family="'ArialMT'" font-size="12">Parque del Maestro       </text>
	<text transform="matrix(1 0 0 1 12.9077 112.293)" fill="#FFFFFF" font-family="'ArialMT'" font-size="12">Parque de Convivencia       </text>
	<text transform="matrix(1 0 0 1 136.9858 154.293)" fill="#FFFFFF" font-family="'ArialMT'" font-size="12">       </text>
</g>
<g>
	<text transform="matrix(1 0 0 1 209.3242 70.5625)" fill="#FFFFFF" font-family="'ArialMT'" font-size="12">Esc. Primaria Pdte. Miguel Alemán     </text>
	<text transform="matrix(1 0 0 1 209.3242 91.5625)" fill="#FFFFFF" font-family="'ArialMT'" font-size="12">Revolución       </text>
	<text transform="matrix(1 0 0 1 209.3242 112.5625)" fill="#FFFFFF" font-family="'ArialMT'" font-size="12">Quinta Mary </text>
</g>
<path fill="#FFFFFF" stroke="#67216C" stroke-width="5" stroke-linecap="round" stroke-linejoin="round" stroke-miterlimit="10" d="
	M157.133,65.995c0,3.231-2.621,5.851-5.852,5.851c-3.234,0-5.854-2.619-5.854-5.851c0-3.234,2.619-5.854,5.854-5.854
	C154.512,60.141,157.133,62.76,157.133,65.995z"/>
<path fill="#FFFFFF" stroke="#67216C" stroke-width="5" stroke-linecap="round" stroke-linejoin="round" stroke-miterlimit="10" d="
	M157.133,107.939c0,3.231-2.621,5.851-5.852,5.851c-3.234,0-5.854-2.619-5.854-5.851c0-3.234,2.619-5.854,5.854-5.854
	C154.512,102.085,157.133,104.705,157.133,107.939z"/>
<path fill="#FFFFFF" stroke="#67216C" stroke-width="5" stroke-linecap="round" stroke-linejoin="round" stroke-miterlimit="10" d="
	M201.852,87.001c0,3.231-2.619,5.851-5.852,5.851s-5.852-2.619-5.852-5.851c0-3.234,2.619-5.854,5.852-5.854
	S201.852,83.767,201.852,87.001z"/>
<path fill="#FFFFFF" stroke="#67216C" stroke-width="5" stroke-linecap="round" stroke-linejoin="round" stroke-miterlimit="10" d="
	M201.852,65.995c0,3.231-2.619,5.851-5.852,5.851s-5.852-2.619-5.852-5.851c0-3.234,2.619-5.854,5.852-5.854
	S201.852,62.76,201.852,65.995z"/>
<path fill="#FFFFFF" stroke="#67216C" stroke-width="5" stroke-linecap="round" stroke-linejoin="round" stroke-miterlimit="10" d="
	M201.852,107.939c0,3.231-2.619,5.851-5.852,5.851s-5.852-2.619-5.852-5.851c0-3.234,2.619-5.854,5.852-5.854
	S201.852,104.705,201.852,107.939z"/>
<polygon fill="#F5F5F6" points="194.054,100.496 196,94.185 197.946,100.496 "/>
<polygon fill="#F5F5F6" points="194.054,79.413 196,73.102 197.946,79.413 "/>
<polygon fill="#F5F5F6" points="153.224,73.102 151.277,79.413 149.338,73.102 "/>
<polygon fill="#F5F5F6" points="153.224,94.185 151.277,100.496 149.338,94.185 "/>
<polygon fill="#F5F5F6" points="162.211,105.992 168.523,107.938 162.211,109.883 "/>
<polygon fill="#F5F5F6" points="184.957,109.883 178.645,107.938 184.957,105.992 "/>
<polygon fill="#F5F5F6" points="176.712,67.402 170.402,65.456 176.712,63.511 "/>
<g>
	<circle fill="#FFFFFF" cx="173.689" cy="44.969" r="2.108"/>
</g>
<g>
	<circle fill="#FFFFFF" cx="173.689" cy="23.981" r="2.108"/>
</g>
<g>
	<path fill="#FFFFFF" d="M173.689,441.855c-1.164,0-2.109,0.944-2.109,2.106c0,1.164,0.945,2.109,2.109,2.109
		c1.16,0,2.107-0.945,2.107-2.109C175.797,442.801,174.85,441.855,173.689,441.855z"/>
</g>
<g>
	<path fill="#FFFFFF" d="M173.689,462.816c-1.164,0-2.109,0.944-2.109,2.106c0,1.164,0.945,2.109,2.109,2.109
		c1.16,0,2.107-0.945,2.107-2.109C175.797,463.762,174.85,462.816,173.689,462.816z"/>
</g>
<g>
	<path fill="#FFFFFF" d="M173.689,483.992c-1.164,0-2.109,0.945-2.109,2.108c0,1.162,0.945,2.107,2.109,2.107
		c1.16,0,2.107-0.945,2.107-2.107C175.797,484.938,174.85,483.992,173.689,483.992z"/>
</g>
<g>
	<path fill="#FFFFFF" d="M173.689,505.08c-1.164,0-2.109,0.945-2.109,2.106c0,1.164,0.945,2.109,2.109,2.109
		c1.16,0,2.107-0.945,2.107-2.109C175.797,506.025,174.85,505.08,173.689,505.08z"/>
</g>
<g>
	<path fill="#FFFFFF" d="M173.689,547.162c-1.164,0-2.109,0.945-2.109,2.109c0,1.161,0.945,2.106,2.109,2.106
		c1.16,0,2.107-0.945,2.107-2.106C175.797,548.107,174.85,547.162,173.689,547.162z"/>
</g>
<g>
	<circle fill="#FFFFFF" cx="173.664" cy="234.34" r="2.108"/>
</g>
<g>
	<path fill="#FFFFFF" d="M173.559,253.113c-1.164,0-2.109,0.945-2.109,2.107c0,1.164,0.945,2.109,2.109,2.109
		c1.16,0,2.107-0.945,2.107-2.109C175.666,254.058,174.719,253.113,173.559,253.113z"/>
</g>
<g>
	<path fill="#FFFFFF" d="M173.666,295.361c-1.164,0-2.109,0.946-2.109,2.11c0,1.162,0.945,2.107,2.109,2.107
		c1.16,0,2.107-0.945,2.107-2.107C175.773,296.307,174.826,295.361,173.666,295.361z"/>
</g>
<g>
	<path fill="#FFFFFF" d="M173.559,315.654c-1.164,0-2.109,0.944-2.109,2.108c0,1.162,0.945,2.107,2.109,2.107
		c1.16,0,2.107-0.945,2.107-2.107C175.666,316.6,174.719,315.654,173.559,315.654z"/>
</g>
<g>
	<path fill="#FFFFFF" d="M173.559,337.049c-1.164,0-2.109,0.945-2.109,2.107c0,1.164,0.945,2.108,2.109,2.108
		c1.16,0,2.107-0.944,2.107-2.108C175.666,337.994,174.719,337.049,173.559,337.049z"/>
</g>
<g>
	<path fill="#FFFFFF" d="M173.559,358.076c-1.164,0-2.109,0.945-2.109,2.108c0,1.162,0.945,2.107,2.109,2.107
		c1.16,0,2.107-0.945,2.107-2.107C175.666,359.021,174.719,358.076,173.559,358.076z"/>
</g>
<g>
	<circle fill="#FFFFFF" cx="173.664" cy="401.974" r="2.108"/>
</g>
<g>
	<path fill="#FFFFFF" d="M173.689,526.145c-1.164,0-2.109,0.945-2.109,2.107c0,1.164,0.945,2.109,2.109,2.109
		c1.16,0,2.107-0.945,2.107-2.109C175.797,527.09,174.85,526.145,173.689,526.145z"/>
</g>
<g>
	<text transform="matrix(1 0 0 1 157.0435 112.7002)" fill="#666666" font-family="'ArialMT'" font-size="12"> </text>
	<text transform="matrix(1 0 0 1 64.9927 238.7002)" fill="#666666" font-family="'ArialMT'" font-size="12">Galerías Pachuca</text>
	<text transform="matrix(1 0 0 1 84.3467 259.7002)" fill="#666666" font-family="'ArialMT'" font-size="12">Centro Minero</text>
	<text transform="matrix(1 0 0 1 70.3247 301.7002)" fill="#666666" font-family="'ArialMT'" font-size="12">Tec. de Pachuca</text>
	<text transform="matrix(1 0 0 1 127.6997 322.7002)" fill="#666666" font-family="'ArialMT'" font-size="12">SEPH</text>
	<text transform="matrix(1 0 0 1 104.3506 343.7002)" fill="#666666" font-family="'ArialMT'" font-size="12">Hospitales</text>
	<text transform="matrix(1 0 0 1 87.0127 364.7002)" fill="#666666" font-family="'ArialMT'" font-size="12">Juan C. Doria</text>
	<text transform="matrix(1 0 0 1 77.6895 406.7002)" fill="#666666" font-family="'ArialMT'" font-size="12">Sector Primario</text>
	<text transform="matrix(1 0 0 1 61.6416 448.7002)" fill="#666666" font-family="'ArialMT'" font-size="12">Plaza San Antonio</text>
	<text transform="matrix(1 0 0 1 94.3306 469.7002)" fill="#666666" font-family="'ArialMT'" font-size="12">Los Ángeles</text>
	<text transform="matrix(1 0 0 1 26.9717 490.7002)" fill="#666666" font-family="'ArialMT'" font-size="12">Casa de la Tercera Edad</text>
	<text transform="matrix(1 0 0 1 78.9907 511.7002)" fill="#666666" font-family="'ArialMT'" font-size="12">Real de Toledo</text>
	<text transform="matrix(1 0 0 1 87.0005 532.7002)" fill="#666666" font-family="'ArialMT'" font-size="12">Santa Matilde</text>
	<text transform="matrix(1 0 0 1 104.3555 553.7002)" fill="#666666" font-family="'ArialMT'" font-size="12">Las Flores</text>
	<text transform="matrix(1 0 0 1 47.6724 574.7002)" fill="#666666" font-family="'ArialMT'" font-size="12">Terminal/Patio Tellez</text>
</g>
<g>
	<text transform="matrix(1 0 0 1 69.6626 28.582)" fill="#666666" font-family="'ArialMT'" font-size="12">Mercado Hidalgo</text>
	<text transform="matrix(1 0 0 1 11.6318 49.582)" fill="#666666" font-family="'ArialMT'" font-size="12">Fuente de los Niños Heroes</text>
</g>
<g>
	<text transform="matrix(1 0 0 1 209.377 70.8525)" fill="#D0D0D0" font-family="'ArialMT'" font-size="12"> </text>
</g>
</svg>
