<?xml version="1.0" encoding="utf-8"?>
<!-- Generator: Adobe Illustrator 16.0.0, SVG Export Plug-In . SVG Version: 6.00 Build 0)  -->
<!DOCTYPE svg PUBLIC "-//W3C//DTD SVG 1.1//EN" "http://www.w3.org/Graphics/SVG/1.1/DTD/svg11.dtd">
<svg version="1.1" id="Capa_1" xmlns="http://www.w3.org/2000/svg" xmlns:xlink="http://www.w3.org/1999/xlink" x="0px" y="0px"
	 width="398px" height="590px" viewBox="0 0 398 590" enable-background="new 0 0 398 590" xml:space="preserve">
<path fill="none" stroke="#58585A" stroke-width="7" stroke-linecap="round" stroke-linejoin="round" stroke-miterlimit="10" d="
	M168.123,43.949c0-14.704,0-23.094,0-23.094"/>
<path fill="none" stroke="#58585A" stroke-width="7" stroke-linecap="round" stroke-linejoin="round" stroke-miterlimit="10" d="
	M168.123,568.463c0,0,0-307.768,0-461.847"/>
<line fill="none" stroke="#ED8E1F" stroke-width="7" stroke-linecap="round" stroke-linejoin="round" stroke-miterlimit="10" x1="168.123" y1="524.463" x2="168.123" y2="178.855"/>
<polygon fill="none" stroke="#58585A" stroke-width="7" stroke-linecap="round" stroke-linejoin="round" stroke-miterlimit="10" points="
	145.74,62.646 168.017,42.646 190.459,62.646 190.459,105.126 145.739,105.126 "/>
<path fill="#FFFFFF" stroke="#585759" stroke-width="6" stroke-linecap="round" stroke-linejoin="round" stroke-miterlimit="10" d="
	M175.219,567.283c0,3.979-3.225,7.203-7.202,7.203c-3.98,0-7.203-3.225-7.203-7.203c0-3.977,3.222-7.199,7.203-7.199
	C171.994,560.084,175.219,563.307,175.219,567.283z"/>
<circle fill="#FFFFFF" stroke="#ED8E1F" stroke-width="5" stroke-linecap="round" stroke-linejoin="round" stroke-miterlimit="10" cx="168.017" cy="525.439" r="5.853"/>
<circle fill="#FFFFFF" stroke="#ED8E1F" stroke-width="5" stroke-linecap="round" stroke-linejoin="round" stroke-miterlimit="10" cx="168.017" cy="420.172" r="5.853"/>
<circle fill="#FFFFFF" stroke="#ED8E1F" stroke-width="5" stroke-linecap="round" stroke-linejoin="round" stroke-miterlimit="10" cx="168.017" cy="378.268" r="5.853"/>
<g>
	<circle fill="#FFFFFF" cx="168.123" cy="294.483" r="2.108"/>
</g>
<g>
	<circle fill="#FFFFFF" cx="168.123" cy="252.409" r="2.108"/>
</g>
<g>
	<circle fill="#FFFFFF" cx="168.123" cy="231.528" r="2.108"/>
</g>
<g>
	<circle fill="#FFFFFF" cx="168.123" cy="168.329" r="2.108"/>
</g>
<g>
	<circle fill="#FFFFFF" cx="168.123" cy="147.377" r="2.108"/>
</g>
<g>
	<circle fill="#FFFFFF" cx="168.123" cy="126.503" r="2.108"/>
</g>
<g>
	<path fill="#FFFFFF" d="M145.74,82.081c-1.163,0-2.108,0.945-2.108,2.108s0.945,2.108,2.108,2.108c1.161,0,2.107-0.945,2.107-2.108
		S146.901,82.081,145.74,82.081z"/>
</g>
<g>
	<path fill="#FFFFFF" d="M145.74,61.074c-1.163,0-2.108,0.945-2.108,2.108s0.945,2.108,2.108,2.108c1.161,0,2.107-0.945,2.107-2.108
		S146.901,61.074,145.74,61.074z"/>
</g>
<g>
	<path fill="#FFFFFF" d="M168.125,40.116c-1.164,0-2.109,0.945-2.109,2.108s0.945,2.108,2.109,2.108c1.16,0,2.107-0.945,2.107-2.108
		S169.285,40.116,168.125,40.116z"/>
</g>
<g>
	<path fill="#FFFFFF" d="M168.125,19.128c-1.164,0-2.109,0.945-2.109,2.108s0.945,2.108,2.109,2.108c1.16,0,2.107-0.945,2.107-2.108
		S169.285,19.128,168.125,19.128z"/>
</g>
<g>
	<path fill="#FFFFFF" d="M190.461,82.081c-1.164,0-2.109,0.945-2.109,2.108s0.945,2.108,2.109,2.108c1.16,0,2.107-0.945,2.107-2.108
		S191.622,82.081,190.461,82.081z"/>
</g>
<g>
	<path fill="#FFFFFF" d="M190.461,61.074c-1.164,0-2.109,0.945-2.109,2.108s0.945,2.108,2.109,2.108c1.16,0,2.107-0.945,2.107-2.108
		S191.622,61.074,190.461,61.074z"/>
</g>
<g>
	<circle fill="#FFFFFF" cx="189.487" cy="104.154" r="2.108"/>
</g>
<g>
	<path fill="#FFFFFF" d="M146.712,102.108c-1.163,0-2.108,0.945-2.108,2.108s0.945,2.108,2.108,2.108
		c1.161,0,2.107-0.945,2.107-2.108S147.874,102.108,146.712,102.108z"/>
</g>
<g>
	<circle fill="#FFFFFF" cx="168.123" cy="314.952" r="2.108"/>
</g>
<g>
	<circle fill="#FFFFFF" cx="168.123" cy="336.345" r="2.108"/>
</g>
<g>
	<circle fill="#FFFFFF" cx="168.123" cy="357.374" r="2.108"/>
</g>
<g>
	<circle fill="#FFFFFF" cx="168.123" cy="399.163" r="2.108"/>
</g>
<g>
	<circle fill="#FFFFFF" cx="168.123" cy="441.218" r="2.108"/>
</g>
<g>
	<circle fill="#FFFFFF" cx="168.123" cy="462.179" r="2.108"/>
</g>
<g>
	<circle fill="#FFFFFF" cx="168.123" cy="483.356" r="2.108"/>
</g>
<g>
	<circle fill="#FFFFFF" cx="168.123" cy="504.442" r="2.108"/>
</g>
<g>
	<circle fill="#FFFFFF" cx="168.123" cy="546.526" r="2.108"/>
</g>
<circle fill="#FFFFFF" stroke="#ED8E1F" stroke-width="5" stroke-linecap="round" stroke-linejoin="round" stroke-miterlimit="10" cx="168.017" cy="273.428" r="5.853"/>
<circle fill="#FFFFFF" stroke="#ED8E1F" stroke-width="5" stroke-linecap="round" stroke-linejoin="round" stroke-miterlimit="10" cx="168.017" cy="210.424" r="5.853"/>
<circle fill="#FFFFFF" stroke="#ED8E1F" stroke-width="5" stroke-linecap="round" stroke-linejoin="round" stroke-miterlimit="10" cx="168.017" cy="189.356" r="5.853"/>
<text transform="matrix(1 0 0 1 151.4502 109.5996)"><tspan x="0" y="0" fill="#FFFFFF" font-family="'ArialMT'" font-size="12"> </tspan><tspan x="-40.67" y="84" fill="#FFFFFF" font-family="'ArialMT'" font-size="12">CECATI</tspan><tspan x="-94.037" y="105" fill="#FFFFFF" font-family="'ArialMT'" font-size="12">Tec. de Monterrey</tspan><tspan x="-96.727" y="168" fill="#FFFFFF" font-family="'ArialMT'" font-size="12">Plaza Bicentenario</tspan><tspan x="-77.373" y="273" fill="#FFFFFF" font-family="'ArialMT'" font-size="12">Plaza de Toros</tspan><tspan x="-92.057" y="315" fill="#FFFFFF" font-family="'ArialMT'" font-size="12">Villas de Pachuca</tspan><tspan x="-70.043" y="420" fill="#FFFFFF" font-family="'ArialMT'" font-size="12">Santa Matilde</tspan></text>
<circle fill="#FFFFFF" stroke="#ED8E1F" stroke-width="5" stroke-linecap="round" stroke-linejoin="round" stroke-miterlimit="10" cx="190.608" cy="178.919" r="5.852"/>
<text transform="matrix(1 0 0 1 203.7842 183.2422)" fill="#FFFFFF" font-family="'ArialMT'" font-size="12">Central de Abastos</text>
<line fill="none" stroke="#ED8E1F" stroke-width="7" stroke-linecap="round" stroke-linejoin="round" stroke-miterlimit="10" x1="168.607" y1="178.918" x2="183.608" y2="178.918"/>
<text transform="matrix(1 0 0 1 151.4502 109.5996)"><tspan x="0" y="0" fill="#D0D0D0" font-family="'ArialMT'" font-size="12"> </tspan><tspan x="-38.695" y="21" fill="#D0D0D0" font-family="'ArialMT'" font-size="12">Prepa 1</tspan><tspan x="-82.031" y="42" fill="#D0D0D0" font-family="'ArialMT'" font-size="12">Sec. Gral. No. 2</tspan><tspan x="-47.35" y="63" fill="#D0D0D0" font-family="'ArialMT'" font-size="12">Poliforum</tspan><tspan x="-92.051" y="126" fill="#D0D0D0" font-family="'ArialMT'" font-size="12">Galerías Pachuca</tspan><tspan x="-72.697" y="147" fill="#D0D0D0" font-family="'ArialMT'" font-size="12">Centro Minero</tspan><tspan x="-86.719" y="189" fill="#D0D0D0" font-family="'ArialMT'" font-size="12">Tec. de Pachuca</tspan><tspan x="-29.344" y="210" fill="#D0D0D0" font-family="'ArialMT'" font-size="12">SEPH</tspan><tspan x="-52.693" y="231" fill="#D0D0D0" font-family="'ArialMT'" font-size="12">Hospitales</tspan><tspan x="-70.031" y="252" fill="#D0D0D0" font-family="'ArialMT'" font-size="12">Juan C. Doria</tspan><tspan x="-79.354" y="294" fill="#D0D0D0" font-family="'ArialMT'" font-size="12">Sector Primario</tspan><tspan x="-95.402" y="336" fill="#D0D0D0" font-family="'ArialMT'" font-size="12">Plaza San Antonio</tspan><tspan x="-62.713" y="357" fill="#D0D0D0" font-family="'ArialMT'" font-size="12">Los Ángeles</tspan><tspan x="-130.072" y="378" fill="#D0D0D0" font-family="'ArialMT'" font-size="12">Casa de la Tercera Edad</tspan><tspan x="-78.053" y="399" fill="#D0D0D0" font-family="'ArialMT'" font-size="12">Real de Toledo</tspan><tspan x="-52.688" y="441" fill="#D0D0D0" font-family="'ArialMT'" font-size="12">Las Flores</tspan><tspan x="-109.371" y="462" fill="#D0D0D0" font-family="'ArialMT'" font-size="12">Terminal/Patio Tellez</tspan></text>
<g>
	<text transform="matrix(1 0 0 1 64.0693 25.4814)"><tspan x="0" y="0" fill="#D0D0D0" font-family="'ArialMT'" font-size="12">Mercado Hidalgo</tspan><tspan x="-58.031" y="21" fill="#D0D0D0" font-family="'ArialMT'" font-size="12">Fuente de los Niños Heroes</tspan><tspan x="-1.992" y="42" fill="#D0D0D0" font-family="'ArialMT'" font-size="12">Plaza Juarez       </tspan><tspan x="-37.348" y="63" fill="#D0D0D0" font-family="'ArialMT'" font-size="12">Parque del Maestro       </tspan><tspan x="-56.701" y="84" fill="#D0D0D0" font-family="'ArialMT'" font-size="12">Parque de Convivencia       </tspan><tspan x="67.377" y="126" fill="#D0D0D0" font-family="'ArialMT'" font-size="12">       </tspan></text>
</g>
<g>
	<text transform="matrix(1 0 0 1 203.7842 67.7515)"><tspan x="0" y="0" fill="#D0D0D0" font-family="'ArialMT'" font-size="12">Esc. Primaria Pdte. Miguel Alemán     </tspan><tspan x="0" y="21" fill="#D0D0D0" font-family="'ArialMT'" font-size="12">Revolución       </tspan><tspan x="0" y="42" fill="#D0D0D0" font-family="'ArialMT'" font-size="12">Quinta Mary </tspan></text>
</g>
</svg>
